ffmpeg started on 2025-06-07 at 16:57:04
Report written to "D:\Convert\FFMetrics\reports\ssim_report-6.txt"
Log level: 32
Command line:
ffmpeg -hide_banner -nostdin -i "G:\\\xc0\xed\xe8\xec\xe5\\\xce\xed\xe3\xee\xe8\xed\xe3\xe8\\!_36_\xce\xf1\xe5\xed\xfc_2024\\DreamCast\\\xd6\xe8\xea\xeb \xe8\xf1\xf2\xee\xf0\xe8\xe9 - \xcc\xe5\xe6\xf1\xe5\xe7\xee\xed\xfc\xe5 \xe8 \xf1\xe5\xe7\xee\xed \xec\xee\xed\xf1\xf2\xf0\xee\xe2\\DC_Monogatari_Series_Off_and_Monster_Season_13_Telegram_HEVC.mkv" -i "G:\\\xc0\xed\xe8\xec\xe5\\\xce\xed\xe3\xee\xe8\xed\xe3\xe8\\!_36_\xce\xf1\xe5\xed\xfc_2024\\DreamCast\\\xd6\xe8\xea\xeb \xe8\xf1\xf2\xee\xf0\xe8\xe9 - \xcc\xe5\xe6\xf1\xe5\xe7\xee\xed\xfc\xe5 \xe8 \xf1\xe5\xe7\xee\xed \xec\xee\xed\xf1\xf2\xf0\xee\xe2\\DC_Monogatari_Series_Off_and_Monster_Season_13_Telegram.mp4" -lavfi "[0:v]settb=AVTB,setpts=PTS-STARTPTS,format=pix_fmts=yuv420p10,fps=24000/1001,scale=1920:1080:flags=bicubic[main];[1:v]settb=AVTB,setpts=PTS-STARTPTS,format=pix_fmts=yuv420p,fps=24000/1001,scale=1920:1080:flags=bicubic[ref];[main][ref]ssim=eof_action=endall:stats_file='D\\:/Convert/FFMetrics/logs/ssim_logfile-6.txt'" -f null -
Input #0, matroska,webm, from 'G:\Аниме\Онгоинги\!_36_Осень_2024\DreamCast\Цикл историй - Межсезонье и сезон монстров\DC_Monogatari_Series_Off_and_Monster_Season_13_Telegram_HEVC.mkv':
  Metadata:
    COMPATIBLE_BRANDS: isomiso2avc1mp41
    MAJOR_BRAND     : isom
    MINOR_VERSION   : 512
    ENCODER         : Lavf61.7.100
  Duration: 00:24:41.77, start: -0.021000, bitrate: 1346 kb/s
  Stream #0:0: Video: hevc (Main 10), yuv420p10le(tv, bt709, progressive), 1920x1080 [SAR 1:1 DAR 16:9], 23.98 fps, 23.98 tbr, 1k tbn (default)
      Metadata:
        HANDLER_NAME    : VideoHandler
        VENDOR_ID       : [0][0][0][0]
        ENCODER         : Lavc61.19.100 libx265
        BPS             : 1148291
        DURATION        : 00:24:41.604708333
        NUMBER_OF_FRAMES: 35523
        NUMBER_OF_BYTES : 212664157
        _STATISTICS_WRITING_APP: mkvpropedit v66.0.0 ('Josie') 64-bit
        _STATISTICS_WRITING_DATE_UTC: 2025-06-05 12:40:56
        _STATISTICS_TAGS: BPS DURATION NUMBER_OF_FRAMES NUMBER_OF_BYTES
  Stream #0:1: Audio: aac (LC), 48000 Hz, stereo, fltp (default)
      Metadata:
        HANDLER_NAME    : SoundHandler
        VENDOR_ID       : [0][0][0][0]
        ENCODER         : Lavc61.19.100 aac
        BPS             : 194378
        DURATION        : 00:24:41.770000000
        NUMBER_OF_FRAMES: 69459
        NUMBER_OF_BYTES : 36003019
        _STATISTICS_WRITING_APP: mkvpropedit v66.0.0 ('Josie') 64-bit
        _STATISTICS_WRITING_DATE_UTC: 2025-06-05 12:40:56
        _STATISTICS_TAGS: BPS DURATION NUMBER_OF_FRAMES NUMBER_OF_BYTES
Input #1, mov,mp4,m4a,3gp,3g2,mj2, from 'G:\Аниме\Онгоинги\!_36_Осень_2024\DreamCast\Цикл историй - Межсезонье и сезон монстров\DC_Monogatari_Series_Off_and_Monster_Season_13_Telegram.mp4':
  Metadata:
    major_brand     : isom
    minor_version   : 512
    compatible_brands: isomiso2avc1mp41
    encoder         : Lavf61.1.100
  Duration: 00:24:41.73, start: 0.000000, bitrate: 3228 kb/s
  Stream #1:0[0x1](und): Video: h264 (High) (avc1 / 0x31637661), yuv420p(tv, bt709, progressive), 1920x1080 [SAR 1:1 DAR 16:9], 3081 kb/s, 23.98 fps, 23.98 tbr, 24k tbn (default)
      Metadata:
        handler_name    : VideoHandler
        vendor_id       : [0][0][0][0]
        encoder         : Lavc61.3.100 h264_qsv
  Stream #1:1[0x2](und): Audio: aac (HE-AACv2) (mp4a / 0x6134706D), 48000 Hz, stereo, fltp, 144 kb/s (default)
      Metadata:
        handler_name    : SoundHandler
        vendor_id       : [0][0][0][0]
Stream mapping:
  Stream #0:0 (hevc) -> settb:default
  Stream #1:0 (h264) -> settb:default
  ssim:default -> Stream #0:0 (wrapped_avframe)
  Stream #0:1 -> #0:1 (aac (native) -> pcm_s16le (native))
Output #0, null, to 'pipe:':
  Metadata:
    COMPATIBLE_BRANDS: isomiso2avc1mp41
    MAJOR_BRAND     : isom
    MINOR_VERSION   : 512
    encoder         : Lavf61.7.100
  Stream #0:0: Video: wrapped_avframe, yuv420p10le(tv, bt709, progressive), 1920x1080 [SAR 1:1 DAR 16:9], q=2-31, 200 kb/s, 23.98 fps, 23.98 tbn
      Metadata:
        encoder         : Lavc61.19.100 wrapped_avframe
  Stream #0:1: Audio: pcm_s16le, 48000 Hz, stereo, s16, 1536 kb/s (default)
      Metadata:
        HANDLER_NAME    : SoundHandler
        VENDOR_ID       : [0][0][0][0]
        _STATISTICS_TAGS: BPS DURATION NUMBER_OF_FRAMES NUMBER_OF_BYTES
        BPS             : 194378
        DURATION        : 00:24:41.770000000
        NUMBER_OF_FRAMES: 69459
        NUMBER_OF_BYTES : 36003019
        _STATISTICS_WRITING_APP: mkvpropedit v66.0.0 ('Josie') 64-bit
        _STATISTICS_WRITING_DATE_UTC: 2025-06-05 12:40:56
        encoder         : Lavc61.19.100 pcm_s16le
frame=  166 fps=0.0 q=-0.0 size=N/A time=00:00:06.92 bitrate=N/A speed=13.7x    frame=  395 fps=384 q=-0.0 size=N/A time=00:00:16.47 bitrate=N/A speed=  16x    frame=  628 fps=408 q=-0.0 size=N/A time=00:00:26.19 bitrate=N/A speed=  17x    frame=  911 fps=442 q=-0.0 size=N/A time=00:00:37.99 bitrate=N/A speed=18.4x    frame= 1164 fps=453 q=-0.0 size=N/A time=00:00:48.54 bitrate=N/A speed=18.9x    frame= 1450 fps=469 q=-0.0 size=N/A time=00:01:00.47 bitrate=N/A speed=19.6x    frame= 1729 fps=481 q=-0.0 size=N/A time=00:01:12.11 bitrate=N/A speed=  20x    frame= 2023 fps=491 q=-0.0 size=N/A time=00:01:24.37 bitrate=N/A speed=20.5x    frame= 2303 fps=497 q=-0.0 size=N/A time=00:01:36.05 bitrate=N/A speed=20.7x    frame= 2606 fps=505 q=-0.0 size=N/A time=00:01:48.69 bitrate=N/A speed=21.1x    frame= 2858 fps=504 q=-0.0 size=N/A time=00:01:59.20 bitrate=N/A speed=  21x    frame= 3138 fps=508 q=-0.0 size=N/A time=00:02:10.88 bitrate=N/A speed=21.2x    frame= 3439 fps=513 q=-0.0 size=N/A time=00:02:23.43 bitrate=N/A speed=21.4x    frame= 3711 fps=515 q=-0.0 size=N/A time=00:02:34.77 bitrate=N/A speed=21.5x    frame= 3984 fps=515 q=-0.0 size=N/A time=00:02:46.16 bitrate=N/A speed=21.5x    frame= 4270 fps=518 q=-0.0 size=N/A time=00:02:58.09 bitrate=N/A speed=21.6x    frame= 4492 fps=513 q=-0.0 size=N/A time=00:03:07.35 bitrate=N/A speed=21.4x    frame= 4721 fps=509 q=-0.0 size=N/A time=00:03:16.90 bitrate=N/A speed=21.2x    frame= 4931 fps=504 q=-0.0 size=N/A time=00:03:25.66 bitrate=N/A speed=  21x    frame= 5161 fps=501 q=-0.0 size=N/A time=00:03:35.25 bitrate=N/A speed=20.9x    frame= 5311 fps=490 q=-0.0 size=N/A time=00:03:41.51 bitrate=N/A speed=20.5x    frame= 5545 fps=489 q=-0.0 size=N/A time=00:03:51.27 bitrate=N/A speed=20.4x    frame= 5806 fps=489 q=-0.0 size=N/A time=00:04:02.15 bitrate=N/A speed=20.4x    frame= 6088 fps=492 q=-0.0 size=N/A time=00:04:13.92 bitrate=N/A speed=20.5x    frame= 6366 fps=494 q=-0.0 size=N/A time=00:04:25.51 bitrate=N/A speed=20.6x    frame= 6657 fps=497 q=-0.0 size=N/A time=00:04:37.65 bitrate=N/A speed=20.7x    frame= 6928 fps=498 q=-0.0 size=N/A time=00:04:48.95 bitrate=N/A speed=20.8x    frame= 7139 fps=495 q=-0.0 size=N/A time=00:04:57.75 bitrate=N/A speed=20.6x    frame= 7269 fps=486 q=-0.0 size=N/A time=00:05:03.17 bitrate=N/A speed=20.3x    frame= 7433 fps=481 q=-0.0 size=N/A time=00:05:10.01 bitrate=N/A speed=  20x    frame= 7712 fps=483 q=-0.0 size=N/A time=00:05:21.65 bitrate=N/A speed=20.1x    frame= 8002 fps=485 q=-0.0 size=N/A time=00:05:33.75 bitrate=N/A speed=20.2x    frame= 8277 fps=487 q=-0.0 size=N/A time=00:05:45.21 bitrate=N/A speed=20.3x    frame= 8547 fps=488 q=-0.0 size=N/A time=00:05:56.48 bitrate=N/A speed=20.3x    frame= 8815 fps=488 q=-0.0 size=N/A time=00:06:07.65 bitrate=N/A speed=20.4x    frame= 9092 fps=490 q=-0.0 size=N/A time=00:06:19.21 bitrate=N/A speed=20.4x    frame= 9376 fps=492 q=-0.0 size=N/A time=00:06:31.05 bitrate=N/A speed=20.5x    frame= 9638 fps=492 q=-0.0 size=N/A time=00:06:41.98 bitrate=N/A speed=20.5x    frame= 9912 fps=493 q=-0.0 size=N/A time=00:06:53.45 bitrate=N/A speed=20.6x    frame=10182 fps=494 q=-0.0 size=N/A time=00:07:04.67 bitrate=N/A speed=20.6x    frame=10434 fps=493 q=-0.0 size=N/A time=00:07:15.18 bitrate=N/A speed=20.6x    frame=10712 fps=494 q=-0.0 size=N/A time=00:07:26.77 bitrate=N/A speed=20.6x    frame=10995 fps=496 q=-0.0 size=N/A time=00:07:38.58 bitrate=N/A speed=20.7x    frame=11269 fps=497 q=-0.0 size=N/A time=00:07:50.01 bitrate=N/A speed=20.7x    frame=11565 fps=498 q=-0.0 size=N/A time=00:08:02.35 bitrate=N/A speed=20.8x    frame=11866 fps=500 q=-0.0 size=N/A time=00:08:14.91 bitrate=N/A speed=20.9x    frame=12123 fps=500 q=-0.0 size=N/A time=00:08:25.63 bitrate=N/A speed=20.9x    frame=12418 fps=501 q=-0.0 size=N/A time=00:08:37.93 bitrate=N/A speed=20.9x    frame=12703 fps=503 q=-0.0 size=N/A time=00:08:49.82 bitrate=N/A speed=  21x    frame=12961 fps=503 q=-0.0 size=N/A time=00:09:00.58 bitrate=N/A speed=  21x    frame=13229 fps=503 q=-0.0 size=N/A time=00:09:11.75 bitrate=N/A speed=  21x    frame=13486 fps=503 q=-0.0 size=N/A time=00:09:22.47 bitrate=N/A speed=  21x    frame=13666 fps=500 q=-0.0 size=N/A time=00:09:29.98 bitrate=N/A speed=20.9x    frame=13796 fps=495 q=-0.0 size=N/A time=00:09:35.40 bitrate=N/A speed=20.7x    frame=13926 fps=491 q=-0.0 size=N/A time=00:09:40.83 bitrate=N/A speed=20.5x    frame=14165 fps=490 q=-0.0 size=N/A time=00:09:50.79 bitrate=N/A speed=20.4x    frame=14366 fps=489 q=-0.0 size=N/A time=00:09:59.18 bitrate=N/A speed=20.4x    frame=14567 fps=487 q=-0.0 size=N/A time=00:10:07.56 bitrate=N/A speed=20.3x    frame=14800 fps=486 q=-0.0 size=N/A time=00:10:17.28 bitrate=N/A speed=20.3x    frame=15030 fps=486 q=-0.0 size=N/A time=00:10:26.87 bitrate=N/A speed=20.2x    frame=15304 fps=486 q=-0.0 size=N/A time=00:10:38.30 bitrate=N/A speed=20.3x    frame=15552 fps=486 q=-0.0 size=N/A time=00:10:48.64 bitrate=N/A speed=20.3x    frame=15840 fps=487 q=-0.0 size=N/A time=00:11:00.66 bitrate=N/A speed=20.3x    frame=16137 fps=489 q=-0.0 size=N/A time=00:11:13.04 bitrate=N/A speed=20.4x    frame=16428 fps=490 q=-0.0 size=N/A time=00:11:25.18 bitrate=N/A speed=20.4x    frame=16705 fps=490 q=-0.0 size=N/A time=00:11:36.73 bitrate=N/A speed=20.5x    frame=16964 fps=491 q=-0.0 size=N/A time=00:11:47.54 bitrate=N/A speed=20.5x    frame=17209 fps=490 q=-0.0 size=N/A time=00:11:57.75 bitrate=N/A speed=20.5x    frame=17457 fps=490 q=-0.0 size=N/A time=00:12:08.10 bitrate=N/A speed=20.4x    frame=17686 fps=490 q=-0.0 size=N/A time=00:12:17.65 bitrate=N/A speed=20.4x    frame=17970 fps=490 q=-0.0 size=N/A time=00:12:29.49 bitrate=N/A speed=20.5x    frame=18260 fps=491 q=-0.0 size=N/A time=00:12:41.59 bitrate=N/A speed=20.5x    frame=18530 fps=492 q=-0.0 size=N/A time=00:12:52.85 bitrate=N/A speed=20.5x    frame=18792 fps=492 q=-0.0 size=N/A time=00:13:03.78 bitrate=N/A speed=20.5x    frame=19072 fps=493 q=-0.0 size=N/A time=00:13:15.46 bitrate=N/A speed=20.6x    frame=19328 fps=493 q=-0.0 size=N/A time=00:13:26.13 bitrate=N/A speed=20.6x    frame=19620 fps=494 q=-0.0 size=N/A time=00:13:38.31 bitrate=N/A speed=20.6x    frame=19885 fps=494 q=-0.0 size=N/A time=00:13:49.37 bitrate=N/A speed=20.6x    frame=20181 fps=495 q=-0.0 size=N/A time=00:14:01.71 bitrate=N/A speed=20.6x    frame=20463 fps=496 q=-0.0 size=N/A time=00:14:13.47 bitrate=N/A speed=20.7x    frame=20754 fps=497 q=-0.0 size=N/A time=00:14:25.61 bitrate=N/A speed=20.7x    frame=21025 fps=497 q=-0.0 size=N/A time=00:14:36.91 bitrate=N/A speed=20.7x    frame=21259 fps=496 q=-0.0 size=N/A time=00:14:46.67 bitrate=N/A speed=20.7x    frame=21538 fps=497 q=-0.0 size=N/A time=00:14:58.31 bitrate=N/A speed=20.7x    frame=21813 fps=497 q=-0.0 size=N/A time=00:15:09.78 bitrate=N/A speed=20.7x    frame=22068 fps=497 q=-0.0 size=N/A time=00:15:20.41 bitrate=N/A speed=20.7x    frame=22311 fps=497 q=-0.0 size=N/A time=00:15:30.55 bitrate=N/A speed=20.7x    frame=22605 fps=498 q=-0.0 size=N/A time=00:15:42.81 bitrate=N/A speed=20.8x    frame=22889 fps=498 q=-0.0 size=N/A time=00:15:54.66 bitrate=N/A speed=20.8x    frame=23168 fps=499 q=-0.0 size=N/A time=00:16:06.29 bitrate=N/A speed=20.8x    frame=23474 fps=500 q=-0.0 size=N/A time=00:16:19.06 bitrate=N/A speed=20.9x    frame=23750 fps=500 q=-0.0 size=N/A time=00:16:30.57 bitrate=N/A speed=20.9x    frame=24035 fps=501 q=-0.0 size=N/A time=00:16:42.45 bitrate=N/A speed=20.9x    frame=24295 fps=501 q=-0.0 size=N/A time=00:16:53.30 bitrate=N/A speed=20.9x    frame=24595 fps=502 q=-0.0 size=N/A time=00:17:05.81 bitrate=N/A speed=20.9x    frame=24883 fps=502 q=-0.0 size=N/A time=00:17:17.82 bitrate=N/A speed=  21x    frame=25145 fps=502 q=-0.0 size=N/A time=00:17:28.75 bitrate=N/A speed=  21x    frame=25427 fps=503 q=-0.0 size=N/A time=00:17:40.51 bitrate=N/A speed=  21x    frame=25690 fps=503 q=-0.0 size=N/A time=00:17:51.48 bitrate=N/A speed=  21x    frame=25988 fps=504 q=-0.0 size=N/A time=00:18:03.91 bitrate=N/A speed=  21x    frame=26282 fps=504 q=-0.0 size=N/A time=00:18:16.17 bitrate=N/A speed=  21x    frame=26551 fps=505 q=-0.0 size=N/A time=00:18:27.39 bitrate=N/A speed=  21x    frame=26790 fps=504 q=-0.0 size=N/A time=00:18:37.36 bitrate=N/A speed=  21x    frame=27062 fps=504 q=-0.0 size=N/A time=00:18:48.71 bitrate=N/A speed=  21x    frame=27317 fps=504 q=-0.0 size=N/A time=00:18:59.34 bitrate=N/A speed=  21x    frame=27505 fps=503 q=-0.0 size=N/A time=00:19:07.18 bitrate=N/A speed=  21x    frame=27682 fps=502 q=-0.0 size=N/A time=00:19:14.57 bitrate=N/A speed=20.9x    frame=27864 fps=500 q=-0.0 size=N/A time=00:19:22.16 bitrate=N/A speed=20.9x    frame=28094 fps=500 q=-0.0 size=N/A time=00:19:31.75 bitrate=N/A speed=20.8x    frame=28338 fps=499 q=-0.0 size=N/A time=00:19:41.93 bitrate=N/A speed=20.8x    frame=28535 fps=498 q=-0.0 size=N/A time=00:19:50.14 bitrate=N/A speed=20.8x    frame=28758 fps=498 q=-0.0 size=N/A time=00:19:59.44 bitrate=N/A speed=20.8x    frame=28956 fps=497 q=-0.0 size=N/A time=00:20:07.70 bitrate=N/A speed=20.7x    frame=29195 fps=496 q=-0.0 size=N/A time=00:20:17.67 bitrate=N/A speed=20.7x    frame=29466 fps=497 q=-0.0 size=N/A time=00:20:28.97 bitrate=N/A speed=20.7x    frame=29759 fps=497 q=-0.0 size=N/A time=00:20:41.19 bitrate=N/A speed=20.7x    frame=30039 fps=498 q=-0.0 size=N/A time=00:20:52.87 bitrate=N/A speed=20.8x    frame=30267 fps=497 q=-0.0 size=N/A time=00:21:02.38 bitrate=N/A speed=20.7x    frame=30509 fps=497 q=-0.0 size=N/A time=00:21:12.47 bitrate=N/A speed=20.7x    frame=30713 fps=496 q=-0.0 size=N/A time=00:21:20.98 bitrate=N/A speed=20.7x    frame=30977 fps=496 q=-0.0 size=N/A time=00:21:31.99 bitrate=N/A speed=20.7x    frame=31247 fps=497 q=-0.0 size=N/A time=00:21:43.26 bitrate=N/A speed=20.7x    frame=31488 fps=496 q=-0.0 size=N/A time=00:21:53.31 bitrate=N/A speed=20.7x    frame=31754 fps=496 q=-0.0 size=N/A time=00:22:04.40 bitrate=N/A speed=20.7x    frame=31979 fps=496 q=-0.0 size=N/A time=00:22:13.79 bitrate=N/A speed=20.7x    frame=32248 fps=496 q=-0.0 size=N/A time=00:22:25.01 bitrate=N/A speed=20.7x    frame=32543 fps=497 q=-0.0 size=N/A time=00:22:37.31 bitrate=N/A speed=20.7x    frame=32844 fps=497 q=-0.0 size=N/A time=00:22:49.86 bitrate=N/A speed=20.7x    frame=33109 fps=498 q=-0.0 size=N/A time=00:23:00.92 bitrate=N/A speed=20.8x    frame=33396 fps=498 q=-0.0 size=N/A time=00:23:12.89 bitrate=N/A speed=20.8x    frame=33543 fps=496 q=-0.0 size=N/A time=00:23:19.02 bitrate=N/A speed=20.7x    frame=33680 fps=495 q=-0.0 size=N/A time=00:23:24.73 bitrate=N/A speed=20.6x    frame=33819 fps=493 q=-0.0 size=N/A time=00:23:30.53 bitrate=N/A speed=20.6x    frame=33944 fps=491 q=-0.0 size=N/A time=00:23:35.74 bitrate=N/A speed=20.5x    frame=34093 fps=490 q=-0.0 size=N/A time=00:23:41.96 bitrate=N/A speed=20.4x    frame=34224 fps=488 q=-0.0 size=N/A time=00:23:47.42 bitrate=N/A speed=20.3x    frame=34369 fps=486 q=-0.0 size=N/A time=00:23:53.47 bitrate=N/A speed=20.3x    frame=34497 fps=485 q=-0.0 size=N/A time=00:23:58.81 bitrate=N/A speed=20.2x    frame=34632 fps=483 q=-0.0 size=N/A time=00:24:04.44 bitrate=N/A speed=20.1x    frame=34820 fps=482 q=-0.0 size=N/A time=00:24:12.28 bitrate=N/A speed=20.1x    frame=34966 fps=481 q=-0.0 size=N/A time=00:24:18.37 bitrate=N/A speed=20.1x    frame=35108 fps=479 q=-0.0 size=N/A time=00:24:24.29 bitrate=N/A speed=  20x    frame=35257 fps=478 q=-0.0 size=N/A time=00:24:30.51 bitrate=N/A speed=19.9x    frame=35409 fps=477 q=-0.0 size=N/A time=00:24:36.85 bitrate=N/A speed=19.9x    [Parsed_ssim_10 @ 000001916183eec0] SSIM Y:0.994415 (22.529949) U:0.995302 (23.281091) V:0.995288 (23.268055) All:0.994709 (22.764251)
[out#0/null @ 0000019154ae6540] video:15264KiB audio:277836KiB subtitle:0KiB other streams:0KiB global headers:0KiB muxing overhead: unknown
frame=35523 fps=476 q=-0.0 Lsize=N/A time=00:24:41.60 bitrate=N/A speed=19.9x    
